<svg width="30" height="30" viewBox="0 0 30 30" fill="none" xmlns="http://www.w3.org/2000/svg">
<path fill-rule="evenodd" clip-rule="evenodd" d="M17.3249 25.5422C23.1139 25.5422 27.8068 20.8493 27.8068 15.0603C27.8068 9.27126 23.1139 4.57834 17.3249 4.57834C12.0477 4.57834 7.68136 8.47814 6.95055 13.553L11.6371 10.4732L12.8281 12.2856L5.08711 17.3727L0 9.63168L1.81235 8.44067L4.83478 13.0399C5.80206 7.01348 11.0258 2.40967 17.3249 2.40967C24.3116 2.40967 29.9755 8.07354 29.9755 15.0603C29.9755 22.047 24.3116 27.7109 17.3249 27.7109V25.5422ZM5.68746 14.3374L5.70844 14.3693L5.75703 14.3374H5.68746Z" fill="#4E1965"/>
</svg>
