<?xml version="1.0" encoding="UTF-8"?>
<svg width="18px" height="18px" viewBox="0 0 18 18" version="1.1" xmlns="http://www.w3.org/2000/svg" xmlns:xlink="http://www.w3.org/1999/xlink">
    <title>2D234B1E-5510-4C4A-802E-FCBED9F40EC0</title>
    <g id="VD---Sprint-1" stroke="none" stroke-width="1" fill="none" fill-rule="evenodd">
        <g id="UI-Images" transform="translate(-711.000000, -385.000000)" fill="#fff" fill-rule="nonzero">
            <path d="M715.029107,403 L711.297321,403 L711.297321,390.982321 L715.029107,390.982321 L715.029107,403 Z M713.161205,389.342999 C711.967902,389.342999 711,388.354584 711,387.161254 C711,385.967626 711.967605,385 713.161205,385 C714.354806,385 715.322411,385.967626 715.322411,387.161254 C715.322411,388.354584 714.354107,389.342999 713.161205,389.342999 Z M728.995982,403 L725.272232,403 L725.272232,397.149869 C725.272232,395.755642 725.244107,393.967656 723.332009,393.967656 C721.391786,393.967656 721.094464,395.482421 721.094464,397.049421 L721.094464,403 L717.366696,403 L717.366696,390.982321 L720.945804,390.982321 L720.945804,392.621643 L720.998036,392.621643 C721.49625,391.677426 722.713259,390.680975 724.528929,390.680975 C728.305714,390.680975 729,393.168084 729,396.398513 L729,403 L728.995982,403 Z" id="linkedin"></path>
        </g>
    </g>
</svg>