<?xml version="1.0" encoding="UTF-8"?>
<svg width="156px" height="48px" viewBox="0 0 156 48" version="1.1" xmlns="http://www.w3.org/2000/svg" xmlns:xlink="http://www.w3.org/1999/xlink">
    <!-- Generator: Sketch 55.2 (78181) - https://sketchapp.com -->
    <title>HTA_wo_A4_55mm</title>
    <desc>Created with Sketch.</desc>
    <defs>
        <polygon id="path-1" points="0.00025 0.0267499515 155.833 0.0267499515 155.833 21.94 0.00025 21.94"></polygon>
        <polygon id="path-3" points="0.704351108 0.963 16.5275 0.963 16.5275 32.0580434 0.704351108 32.0580434"></polygon>
    </defs>
    <g id="Page-1" stroke="none" stroke-width="1" fill="none" fill-rule="evenodd">
        <g id="Artboard" transform="translate(-54.000000, -189.000000)">
            <g id="HTA_wo_A4_55mm" transform="translate(54.000000, 189.000000)">
                <polyline id="Fill-1" fill="#FFFEFE" points="36.042 2.167 41.311 2.167 41.23 13.687 53.689 13.687 53.77 2.167 59.081 2.167 58.835 30.435 53.525 30.435 53.689 18.18 41.23 18.18 41.066 30.435 35.797 30.435 36.042 2.167"></polyline>
                <polyline id="Fill-2" fill="#FFFEFE" points="71.514 6.661 63.589 6.661 63.63 2.167 84.585 2.167 84.544 6.661 76.742 6.661 76.538 30.435 71.309 30.435 71.514 6.661"></polyline>
                <path d="M97.027,7.641 L96.946,7.641 L93.392,18.67 L100.294,18.67 L97.027,7.641 Z M88.695,31.007 L83.833,29.536 L94.699,2.167 L99.519,2.167 L109.609,29.536 L104.501,31.007 L101.724,22.918 L91.879,22.918 L88.695,31.007 L88.695,31.007 Z" id="Fill-3" fill="#FFFEFE"></path>
                <polyline id="Fill-4" fill="#FFFEFE" points="36.04 36.942 37.076 36.942 37.041 40.6 41.484 40.6 41.532 36.942 42.568 36.942 42.497 45.187 41.46 45.187 41.496 41.459 37.052 41.459 37.004 45.187 35.968 45.187 36.04 36.942"></polyline>
                <path d="M44.522,39.255 L45.476,39.255 L45.451,41.924 C45.451,42.447 45.439,42.971 45.439,43.555 C45.439,44.199 45.869,44.496 46.524,44.496 C47.143,44.496 47.691,44.139 48.299,43.4 L48.347,39.255 L49.299,39.255 L49.252,45.187 L48.299,45.187 L48.335,44.234 L48.311,44.234 C47.811,44.949 47,45.353 46.297,45.353 C44.927,45.353 44.486,44.652 44.486,43.555 C44.486,43.103 44.498,42.65 44.498,42.197 L44.522,39.255" id="Fill-5" fill="#FFFEFE"></path>
                <path d="M51.122,39.255 L52.087,39.255 L52.075,40.123 L52.099,40.123 C52.588,39.529 53.255,39.089 54.053,39.089 C54.791,39.089 55.388,39.457 55.542,40.184 C56.055,39.623 56.853,39.089 57.603,39.089 C58.831,39.089 59.271,39.789 59.271,40.887 C59.271,41.34 59.259,41.791 59.259,42.244 L59.236,45.187 L58.283,45.187 L58.307,42.518 C58.307,41.994 58.318,41.471 58.318,40.887 C58.318,40.242 57.89,39.945 57.377,39.945 C56.674,39.945 56.162,40.375 55.686,40.934 L55.614,45.187 L54.672,45.187 L54.696,42.518 C54.696,41.994 54.708,41.471 54.708,40.887 C54.708,40.242 54.279,39.945 53.768,39.945 C53.064,39.945 52.552,40.375 52.075,40.934 L52.004,45.187 L51.051,45.187 L51.122,39.255" id="Fill-6" fill="#FFFEFE"></path>
                <path d="M64.072,42.09 C62.417,42.303 61.559,42.613 61.559,43.627 C61.559,44.295 61.964,44.639 62.62,44.639 C63.203,44.639 63.656,44.223 64.025,43.769 L64.072,42.09 Z M66.099,44.926 C65.765,45.187 65.407,45.353 64.991,45.353 C64.454,45.353 64.156,44.865 64.108,44.365 C63.656,44.926 63.084,45.353 62.321,45.353 C61.273,45.353 60.605,44.639 60.605,43.639 C60.605,41.959 62.774,41.566 64.072,41.518 C64.084,41.268 64.096,41.018 64.096,40.768 C64.096,40.254 63.823,39.873 63.191,39.873 C62.727,39.873 62.345,40.041 61.476,40.695 L61.082,40.076 C62.273,39.302 62.655,39.089 63.513,39.089 C64.502,39.089 65.002,39.672 65.002,40.59 C65.002,41.709 64.906,42.744 64.906,43.793 C64.906,44.223 64.966,44.639 65.335,44.639 C65.538,44.639 65.681,44.543 65.836,44.437 L66.099,44.926 L66.099,44.926 Z" id="Fill-7" fill="#FFFEFE"></path>
                <path d="M67.04,39.255 L67.993,39.255 L67.956,40.207 L67.981,40.207 C68.48,39.492 69.291,39.089 69.994,39.089 C71.364,39.089 71.805,39.789 71.805,40.887 C71.805,41.34 71.792,41.791 71.792,42.244 L71.769,45.187 L70.816,45.187 L70.84,42.518 C70.84,41.994 70.852,41.471 70.852,40.887 C70.852,40.242 70.423,39.945 69.768,39.945 C69.148,39.945 68.6,40.303 67.993,41.041 L67.944,45.187 L66.992,45.187 L67.04,39.255" id="Fill-8" fill="#FFFEFE"></path>
                <polyline id="Fill-9" fill="#FFFEFE" points="74.784 36.942 81.027 36.942 81.027 37.802 78.418 37.802 78.346 45.187 77.321 45.187 77.394 37.802 74.784 37.802 74.784 36.942"></polyline>
                <path d="M81.539,39.255 L82.492,39.255 L82.445,45.187 L81.492,45.187 L81.539,39.255 Z M81.492,38.016 L82.515,38.016 L82.515,36.942 L81.492,36.942 L81.492,38.016 Z" id="Fill-10" fill="#FFFEFE"></path>
                <path d="M84.124,44.139 C84.459,44.365 84.923,44.639 85.435,44.639 C85.959,44.639 86.59,44.353 86.59,43.686 C86.59,42.209 83.839,42.852 83.839,40.863 C83.839,39.742 84.755,39.089 85.84,39.089 C86.507,39.089 87.127,39.29 87.567,39.588 L87.127,40.195 C86.781,40.004 86.412,39.803 85.994,39.803 C85.304,39.803 84.791,40.088 84.791,40.791 C84.791,42.066 87.544,41.541 87.544,43.555 C87.544,44.687 86.554,45.353 85.578,45.353 C84.886,45.353 84.255,45.117 83.718,44.769 L84.124,44.139" id="Fill-11" fill="#FFFEFE"></path>
                <path d="M88.758,44.139 C89.091,44.365 89.556,44.639 90.069,44.639 C90.593,44.639 91.224,44.353 91.224,43.686 C91.224,42.209 88.473,42.852 88.473,40.863 C88.473,39.742 89.39,39.089 90.474,39.089 C91.141,39.089 91.761,39.29 92.203,39.588 L91.761,40.195 C91.415,40.004 91.046,39.803 90.628,39.803 C89.937,39.803 89.426,40.088 89.426,40.791 C89.426,42.066 92.177,41.541 92.177,43.555 C92.177,44.687 91.189,45.353 90.212,45.353 C89.521,45.353 88.889,45.117 88.353,44.769 L88.758,44.139" id="Fill-12" fill="#FFFEFE"></path>
                <path d="M93.548,39.255 L94.502,39.255 L94.477,41.924 C94.477,42.447 94.466,42.971 94.466,43.555 C94.466,44.199 94.894,44.496 95.548,44.496 C96.169,44.496 96.716,44.139 97.326,43.4 L97.373,39.255 L98.326,39.255 L98.278,45.187 L97.326,45.187 L97.36,44.234 L97.337,44.234 C96.835,44.949 96.026,45.353 95.323,45.353 C93.953,45.353 93.512,44.652 93.512,43.555 C93.512,43.103 93.525,42.65 93.525,42.197 L93.548,39.255" id="Fill-13" fill="#FFFEFE"></path>
                <path d="M103.747,41.447 C103.747,40.6 103.388,39.803 102.423,39.803 C101.53,39.803 100.958,40.637 100.804,41.447 L103.747,41.447 Z M100.72,42.09 L100.72,42.293 C100.72,43.531 101.184,44.639 102.4,44.639 C103.079,44.639 103.58,44.246 104.091,43.781 L104.556,44.295 C103.948,44.902 103.174,45.353 102.292,45.353 C100.648,45.353 99.695,44.162 99.695,42.221 C99.695,40.59 100.815,39.089 102.412,39.089 C104.007,39.089 104.699,40.303 104.699,41.9 L104.699,42.09 L100.72,42.09 L100.72,42.09 Z" id="Fill-14" fill="#FFFEFE"></path>
                <path d="M111.812,37.872 L111.789,37.872 L110.407,41.59 L113.111,41.59 L111.812,37.872 Z M111.349,36.942 L112.326,36.942 L115.601,45.021 L114.577,45.353 L113.457,42.447 L110.049,42.447 L108.845,45.353 L107.893,45.057 L111.349,36.942 L111.349,36.942 Z" id="Fill-15" fill="#FFFEFE"></path>
                <path d="M116.674,39.255 L117.626,39.255 L117.603,41.924 C117.603,42.447 117.589,42.971 117.589,43.555 C117.589,44.199 118.019,44.496 118.675,44.496 C119.295,44.496 119.843,44.139 120.451,43.4 L120.499,39.255 L121.451,39.255 L121.404,45.187 L120.451,45.187 L120.486,44.234 L120.46,44.234 C119.962,44.949 119.152,45.353 118.45,45.353 C117.079,45.353 116.638,44.652 116.638,43.555 C116.638,43.103 116.65,42.65 116.65,42.197 L116.674,39.255" id="Fill-16" fill="#FFFEFE"></path>
                <path d="M123.631,39.255 L123.655,37.063 L124.607,37.063 L124.583,39.255 L126.205,39.255 L126.205,39.969 L124.572,39.969 L124.548,42.4 C124.537,43.068 124.537,43.508 124.537,43.805 C124.537,44.295 124.679,44.566 125.084,44.566 C125.408,44.566 125.811,44.365 126.038,44.223 L126.347,44.842 C125.955,45.103 125.382,45.353 124.859,45.353 C123.941,45.353 123.583,44.781 123.583,43.84 C123.583,43.447 123.583,42.959 123.595,42.139 L123.619,39.969 L122.607,39.969 L122.607,39.255 L123.631,39.255" id="Fill-17" fill="#FFFEFE"></path>
                <path d="M127.263,36.253 L128.253,36.253 L128.207,40.184 L128.23,40.184 C128.707,39.492 129.517,39.089 130.22,39.089 C131.59,39.089 132.03,39.789 132.03,40.887 C132.03,41.34 132.019,41.791 132.019,42.244 L131.995,45.187 L131.042,45.187 L131.065,42.518 C131.065,41.994 131.078,41.471 131.078,40.887 C131.078,40.242 130.648,39.945 129.994,39.945 C129.374,39.945 128.826,40.303 128.218,41.041 L128.171,45.187 L127.217,45.187 L127.263,36.253" id="Fill-18" fill="#FFFEFE"></path>
                <path d="M136.2,44.639 C137.093,44.639 138.058,43.865 138.058,42.221 C138.058,40.576 137.26,39.803 136.295,39.803 C135.402,39.803 134.437,40.576 134.437,42.221 C134.437,43.865 135.235,44.639 136.2,44.639 Z M136.307,39.089 C138.046,39.089 139.083,40.279 139.083,42.221 C139.083,43.758 138.07,45.353 136.188,45.353 C134.449,45.353 133.413,44.174 133.413,42.221 C133.413,40.684 134.425,39.089 136.307,39.089 L136.307,39.089 Z" id="Fill-19" fill="#FFFEFE"></path>
                <path d="M140.512,39.255 L141.49,39.255 L141.478,40.41 L141.501,40.434 C141.705,39.896 142.288,39.089 143.146,39.089 C143.348,39.089 143.527,39.124 143.658,39.171 L143.373,40.076 C143.277,40.053 143.134,40.018 143.003,40.018 C142.611,40.018 141.978,40.34 141.466,41.291 L141.418,45.187 L140.464,45.187 L140.512,39.255" id="Fill-20" fill="#FFFEFE"></path>
                <path d="M144.384,39.255 L145.338,39.255 L145.291,45.187 L144.337,45.187 L144.384,39.255 Z M144.337,38.016 L145.361,38.016 L145.361,36.942 L144.337,36.942 L144.337,38.016 Z" id="Fill-21" fill="#FFFEFE"></path>
                <g id="Group-26" transform="translate(0.000000, 26.000000)">
                    <mask id="mask-2" fill="white">
                        <use xlink:href="#path-1"></use>
                    </mask>
                    <g id="Clip-23"></g>
                    <path d="M147.458,13.255 L147.483,11.063 L148.435,11.063 L148.412,13.255 L150.032,13.255 L150.032,13.969 L148.399,13.969 L148.376,16.4 C148.365,17.068 148.365,17.508 148.365,17.805 C148.365,18.295 148.507,18.566 148.912,18.566 C149.233,18.566 149.638,18.365 149.866,18.223 L150.174,18.842 C149.781,19.103 149.21,19.353 148.685,19.353 C147.768,19.353 147.411,18.781 147.411,17.84 C147.411,17.447 147.411,16.959 147.422,16.139 L147.447,13.969 L146.433,13.969 L146.433,13.255 L147.458,13.255" id="Fill-22" fill="#FFFEFE" mask="url(#mask-2)"></path>
                    <path d="M150.521,21.283 C151.449,21.283 151.711,21.07 151.961,20.51 L152.605,19.092 L150.401,13.374 L151.425,13.089 L153.07,17.912 L153.093,17.912 L154.892,13.089 L155.833,13.374 L153.188,19.926 C152.521,21.559 152.175,22 150.902,22 L150.521,22 L150.521,21.283" id="Fill-24" fill="#FFFEFE" mask="url(#mask-2)"></path>
                    <path d="M2.896,2.923 C6.759,-0.939 13.02,-0.939 16.881,2.925 C20.743,6.788 20.743,13.05 16.881,16.912 C13.02,20.775 6.759,20.772 2.896,16.91 C-0.965,13.046 -0.965,6.784 2.896,2.923" id="Fill-25" fill="#FFFFFE" mask="url(#mask-2)"></path>
                </g>
                <path d="M7.63,10.159 C10.205,7.584 14.38,7.585 16.955,10.159 C18.372,11.577 19.009,13.479 18.865,15.332 C17.484,15.763 16.183,16.525 15.088,17.619 C13.995,18.712 13.233,20.014 12.803,21.395 C10.95,21.539 9.048,20.901 7.63,19.484 C5.056,16.909 5.056,12.733 7.63,10.159" id="Fill-27" fill="#FFFFFE"></path>
                <g id="Group-31" transform="translate(13.000000, 0.000000)">
                    <mask id="mask-4" fill="white">
                        <use xlink:href="#path-3"></use>
                    </mask>
                    <g id="Clip-29"></g>
                    <path d="M3.021,18.551 C6.111,15.462 11.12,15.462 14.21,18.552 C17.3,21.642 17.3,26.651 14.21,29.741 C12.381,31.571 9.879,32.317 7.501,31.979 C6.959,30.481 6.087,29.075 4.887,27.876 C3.685,26.675 2.28,25.804 0.783,25.261 C0.446,22.882 1.192,20.38 3.021,18.551" id="Fill-28" fill="#FFFFFE" mask="url(#mask-4)"></path>
                    <path d="M3.021,2.701 C5.339,0.383 9.096,0.384 11.413,2.701 C13.73,5.018 13.73,8.776 11.413,11.092 C10.185,12.319 8.556,12.896 6.949,12.824 C6.606,11.506 5.919,10.26 4.887,9.227 C3.854,8.194 2.607,7.507 1.29,7.165 C1.218,5.558 1.794,3.928 3.021,2.701" id="Fill-30" fill="#FFFFFE" mask="url(#mask-4)"></path>
                </g>
            </g>
        </g>
    </g>
</svg>