<svg width="6" height="9" viewBox="0 0 6 9" fill="none" xmlns="http://www.w3.org/2000/svg">
<path fill-rule="evenodd" clip-rule="evenodd" d="M5.86222 3.39861C5.66208 3.64628 5.31732 3.66859 5.09216 3.44844L3 1.40277L0.907839 3.44844C0.682685 3.66859 0.337919 3.64628 0.137783 3.39861C-0.0623545 3.15094 -0.042074 2.7717 0.18308 2.55155L2.63762 0.151554C2.84429 -0.050518 3.15571 -0.0505181 3.36238 0.151554L5.81692 2.55155C6.04207 2.7717 6.06235 3.15094 5.86222 3.39861Z" fill="#2B2B2B"/>
<path fill-rule="evenodd" clip-rule="evenodd" d="M0.137782 5.60139C0.337919 5.35372 0.682685 5.33141 0.907839 5.55156L3 7.59723L5.09216 5.55156C5.31732 5.33141 5.66208 5.35372 5.86222 5.60139C6.06235 5.84906 6.04207 6.2283 5.81692 6.44845L3.36238 8.84845C3.15571 9.05052 2.84428 9.05052 2.63762 8.84845L0.18308 6.44845C-0.0420741 6.2283 -0.0623543 5.84906 0.137782 5.60139Z" fill="#2B2B2B"/>
</svg>
