<?xml version="1.0" encoding="UTF-8"?>
<svg width="21px" height="18px" viewBox="0 0 21 18" version="1.1" xmlns="http://www.w3.org/2000/svg" xmlns:xlink="http://www.w3.org/1999/xlink">
    <title>29DE7476-F768-40C2-B08C-28DF5DEF23ED</title>
    <g id="VD---Sprint-1" stroke="none" stroke-width="1" fill="none" fill-rule="evenodd">
        <g id="UI-Images" transform="translate(-710.000000, -325.000000)" fill="#8DB9CA">
            <path d="M730.420794,325.332767 C729.58759,325.852969 728.666916,326.231297 727.682883,326.433725 C726.89902,325.551344 725.778736,325 724.538462,325 C722.161082,325 720.231704,327.034667 720.231704,329.543975 C720.231704,329.900388 720.26871,330.245843 720.342723,330.57861 C716.762075,330.388869 713.587937,328.582006 711.461752,325.829323 C711.090567,326.502932 710.878621,327.284387 710.878621,328.116594 C710.878621,329.692192 711.638934,331.08324 712.795664,331.898145 C712.0903,331.87623 711.424746,331.669764 710.842736,331.331806 L710.842736,331.387171 C710.842736,333.589664 712.328038,335.427093 714.30059,335.842908 C713.939498,335.949601 713.55822,336.003236 713.165167,336.003236 C712.887619,336.003236 712.6168,335.975553 712.354391,335.922495 C712.902758,337.727051 714.492911,339.041396 716.378554,339.076576 C714.904467,340.295761 713.045737,341.022428 711.027768,341.022428 C710.680132,341.022428 710.336422,341.001666 710,340.960142 C711.906389,342.247381 714.172189,343 716.604518,343 C724.530051,343 728.862601,336.077056 728.862601,330.071673 C728.862601,329.873859 728.859237,329.67662 728.851948,329.482843 C729.693563,328.842107 730.424719,328.042197 731,327.130979 C730.228473,327.492006 729.397512,327.736535 728.526179,327.846112 C729.416015,327.284387 730.098951,326.393932 730.420794,325.332767" id="Twitter"></path>
        </g>
    </g>
</svg>