<?xml version="1.0" encoding="UTF-8"?>
<svg width="26px" height="18px" viewBox="0 0 26 18" version="1.1" xmlns="http://www.w3.org/2000/svg" xmlns:xlink="http://www.w3.org/1999/xlink">
    <title>C6BE7ADF-C315-4C11-B5F9-6960DCA0D652</title>
    <g id="VD---Sprint-1" stroke="none" stroke-width="1" fill="none" fill-rule="evenodd">
        <g id="UI-Images" transform="translate(-707.000000, -358.000000)" fill="#fff" fill-rule="nonzero">
            <path d="M732.456705,360.816391 C732.157683,359.707797 731.276661,358.834703 730.158031,358.538406 C728.130433,358 720,358 720,358 C720,358 711.869614,358 709.841969,358.538406 C708.723339,358.83475 707.842317,359.707797 707.543295,360.816391 C707,362.825781 707,367.018188 707,367.018188 C707,367.018188 707,371.210594 707.543295,373.219984 C707.842317,374.328578 708.723339,375.165297 709.841969,375.461594 C711.869614,376 720,376 720,376 C720,376 728.130386,376 730.158031,375.461594 C731.276661,375.165297 732.157683,374.328578 732.456705,373.219984 C733,371.210594 733,367.018188 733,367.018188 C733,367.018188 733,362.825781 732.456705,360.816391 Z M717.340891,370.824578 L717.340891,363.211797 L724.136318,367.018281 L717.340891,370.824578 Z" id="youtube"></path>
        </g>
    </g>
</svg>